<svg width="14" height="14" viewBox="0 0 14 14" fill="none" xmlns="http://www.w3.org/2000/svg">
<path fill-rule="evenodd" clip-rule="evenodd" d="M12.8333 7.00016C12.8333 10.2218 10.2216 12.8335 6.99992 12.8335C3.77826 12.8335 1.16659 10.2218 1.16659 7.00016C1.16659 3.7785 3.77826 1.16683 6.99992 1.16683C10.2216 1.16683 12.8333 3.7785 12.8333 7.00016ZM13.6666 7.00016C13.6666 10.6821 10.6818 13.6668 6.99992 13.6668C3.31802 13.6668 0.333252 10.6821 0.333252 7.00016C0.333252 3.31826 3.31802 0.333496 6.99992 0.333496C10.6818 0.333496 13.6666 3.31826 13.6666 7.00016ZM6.99992 10.3335C6.7698 10.3335 6.58325 10.1469 6.58325 9.91683V7.41683H4.08325C3.85313 7.41683 3.66659 7.23028 3.66659 7.00016C3.66659 6.77004 3.85313 6.5835 4.08325 6.5835H6.58325V4.0835C6.58325 3.85338 6.7698 3.66683 6.99992 3.66683C7.23004 3.66683 7.41659 3.85338 7.41659 4.0835V6.5835H9.91659C10.1467 6.5835 10.3333 6.77004 10.3333 7.00016C10.3333 7.23028 10.1467 7.41683 9.91659 7.41683H7.41659V9.91683C7.41659 10.1469 7.23004 10.3335 6.99992 10.3335Z" fill="#002EFF"/>
</svg>
