<svg width="24" height="24" viewBox="0 0 24 24" fill="none" xmlns="http://www.w3.org/2000/svg">
<path d="M12.984 2.69849V13.4457L16.3424 9.81007C16.7172 9.40439 17.3498 9.37931 17.7555 9.75406C18.1612 10.1288 18.1863 10.7615 17.8115 11.1672L12.8117 16.5798C12.7724 16.6349 12.7269 16.6868 12.6752 16.7346C12.2695 17.1093 11.6368 17.0842 11.2621 16.6785L6.2276 11.2284C5.85285 10.8228 5.87793 10.1901 6.28361 9.81534C6.6893 9.44059 7.32197 9.46567 7.69672 9.87135L10.984 13.43V2.69849C10.984 2.1462 11.4317 1.69849 11.984 1.69849C12.5363 1.69849 12.984 2.1462 12.984 2.69849Z" fill="#002EFF"/>
<path d="M2 16C2 15.4477 1.55228 15 1 15C0.447715 15 0 15.4477 0 16V17C0 19.7614 2.23858 22 5 22H19C21.7614 22 24 19.7614 24 17V16C24 15.4477 23.5523 15 23 15C22.4477 15 22 15.4477 22 16V17C22 18.6569 20.6569 20 19 20H5C3.34315 20 2 18.6569 2 17V16Z" fill="#002EFF"/>
</svg>
