<svg width="55" height="40" viewBox="0 0 55 40" fill="none" xmlns="http://www.w3.org/2000/svg">
<path d="M46.1003 2.89481C45.4793 2.46564 44.5251 2.53869 43.9772 3.04092L40.4388 6.27799C39.8864 6.78935 39.932 7.57008 40.5347 8.00839C40.5347 8.00839 45.9907 12.0079 45.9907 20.6097C45.9907 29.2114 40.247 33.4575 40.247 33.4575C39.6626 33.9369 39.6444 34.7405 40.1968 35.2473L43.7033 38.4341C44.2512 38.9364 45.2145 39.0094 45.8355 38.5848C45.8355 38.5848 54.0719 32.9873 54.0719 20.6416C54.0719 8.29602 46.1048 2.90394 46.1048 2.90394" fill="#FF3D00"/>
<path d="M12.0128 23.0385C12.0128 23.0385 10.9901 22.9426 10.9901 23.7598C10.9901 28.4214 14.4692 31.7361 19.9206 31.7361C23.9749 31.7361 25.7053 30.7727 28.1571 28.9373C28.7278 28.5082 29.3305 28.1109 29.8008 28.6132C30.1204 28.9602 34.4212 32.9277 34.4212 32.9277C34.96 33.43 34.8139 34.0326 34.2341 34.5212C33.6633 35.0051 27.2348 40 19.8476 40C10.1774 40 0.909092 35.795 0.909092 19.9612C0.909092 7.20466 8.14114 0 18.7427 0C30.1386 0 36.5808 7.95343 36.5808 18.6828V21.3994C36.5808 22.5043 35.6814 23.043 34.9417 23.043H12.0128V23.0385ZM25.5821 12.1584C24.4909 9.83449 22.208 8.1041 18.7518 8.1041C15.2956 8.1041 13.0219 9.83449 11.917 12.1584C11.2823 13.5829 11.0495 14.6376 10.9719 16.3589H26.5317C26.4541 14.6376 26.2121 13.5875 25.5866 12.1584" fill="#002EFF"/>
</svg>
