<svg width="32" height="32" viewBox="0 0 32 32" fill="none" xmlns="http://www.w3.org/2000/svg">
<path fill-rule="evenodd" clip-rule="evenodd" d="M16.0049 27.6731C22.449 27.6731 27.673 22.4491 27.673 16.005C27.673 9.56086 22.449 4.33686 16.0049 4.33686C9.56079 4.33686 4.3368 9.56086 4.3368 16.005C4.3368 22.4491 9.56079 27.6731 16.0049 27.6731ZM16.0049 29.34C23.3696 29.34 29.3399 23.3697 29.3399 16.005C29.3399 8.64027 23.3696 2.66998 16.0049 2.66998C8.64021 2.66998 2.66992 8.64027 2.66992 16.005C2.66992 23.3697 8.64021 29.34 16.0049 29.34ZM19.5409 20.7196C19.8664 21.0451 20.3941 21.0451 20.7195 20.7196C21.045 20.3941 21.045 19.8664 20.7195 19.541L17.1836 16.005L20.7195 12.469C21.045 12.1435 21.045 11.6158 20.7195 11.2903C20.3941 10.9649 19.8664 10.9649 19.5409 11.2903L16.0049 14.8263L12.4689 11.2903C12.1435 10.9649 11.6158 10.9649 11.2903 11.2903C10.9648 11.6158 10.9648 12.1435 11.2903 12.469L14.8263 16.005L11.2903 19.541C10.9648 19.8664 10.9648 20.3941 11.2903 20.7196C11.6158 21.0451 12.1435 21.0451 12.4689 20.7196L16.0049 17.1836L19.5409 20.7196Z" fill="white"/>
</svg>
