<svg width="24" height="24" viewBox="0 0 24 24" fill="none" xmlns="http://www.w3.org/2000/svg">
<path fill-rule="evenodd" clip-rule="evenodd" d="M19 6V4C19 2.89543 18.1046 2 17 2H7C5.89543 2 5 2.89543 5 4V6H3C1.34315 6 0 7.34315 0 9V18C0 19.6569 1.34315 21 3 21H5.26756C5.61337 21.5978 6.25972 22 7 22H17C17.7403 22 18.3866 21.5978 18.7324 21H21C22.6569 21 24 19.6569 24 18V9C24 7.34315 22.6569 6 21 6H19ZM7 4V6H17V4H7ZM3 8C2.44772 8 2 8.44772 2 9V18C2 18.5523 2.44772 19 3 19H5V16C5 14.8954 5.89543 14 7 14H17C18.1046 14 19 14.8954 19 16V19H21C21.5523 19 22 18.5523 22 18V9C22 8.44771 21.5523 8 21 8H3ZM17 20H7V16H17V20Z" fill="#002EFF"/>
</svg>
