<svg width="349" height="240" viewBox="0 0 349 240" fill="none" xmlns="http://www.w3.org/2000/svg">
<mask id="mask0_231_5122" style="mask-type:alpha" maskUnits="userSpaceOnUse" x="0" y="11" width="349" height="199">
<rect y="11" width="349" height="199" rx="8" fill="#D9D9D9"/>
</mask>
<g mask="url(#mask0_231_5122)">
<path d="M187.707 981.215C172.595 993.071 148.037 991.095 132.925 977.263L42.2495 890.317C29.0261 876.485 29.0261 856.724 44.1386 844.868C44.1386 844.868 183.929 738.161 183.929 506.964C183.929 289.599 36.5823 163.132 36.5823 163.132C21.4698 151.276 21.4698 129.539 34.6933 115.707L123.479 30.7371C136.703 16.9048 161.261 14.9287 178.262 26.785C178.262 26.785 387.948 176.964 387.948 506.964C391.726 833.012 187.707 981.215 187.707 981.215Z" fill="#42E8B4"/>
</g>
<path d="M217.29 170.051L219.951 210.764H215.392L210.456 170.495L217.293 170.054L217.29 170.051Z" fill="white" stroke="black" stroke-miterlimit="10"/>
<path d="M146.529 170.051L143.869 210.764H148.428L153.363 170.495L146.527 170.054L146.529 170.051Z" fill="white" stroke="black" stroke-miterlimit="10"/>
<path d="M169.099 120.725L246.206 91.1409C254.339 88.0199 263.915 92.5195 265.97 100.423L269.358 113.459L217.185 140.222C204.751 146.6 190.679 150.177 176.138 150.651L174.988 150.687C160.273 147.462 153.655 125.339 169.101 120.725H169.099Z" fill="#002EFF"/>
<path d="M310.263 207.569V208.097C310.263 209.436 309.174 210.523 307.833 210.523H257.436C255.216 210.523 253.419 208.727 253.419 206.509C253.22 204.746 253.3 202.496 254.028 199.113L260.183 204.82L310.263 207.562V207.567V207.569Z" fill="white" stroke="black" stroke-miterlimit="10"/>
<path d="M266.044 207.708C267.719 207.679 269.36 207.258 270.88 206.554C272.993 205.571 275.598 205.615 278.848 207.006C279.723 207.381 280.668 207.569 281.622 207.569H310.263C313.16 202.054 311.73 198.377 301.338 198.491L291.245 194.903L280.201 186.578L280.047 186.46L279.304 182.512C279.167 181.774 278.526 181.317 277.86 181.317C277.547 181.317 277.23 181.419 276.955 181.635C276.634 181.886 276.437 182.26 276.403 182.669L275.902 189.04C275.82 190.101 275.333 191.04 274.604 191.714C273.872 192.387 272.9 192.797 271.834 192.797C270.988 192.797 270.166 192.535 269.478 192.048L261.875 186.676C258.635 183.804 256.804 182.933 257.013 184.988L257.553 187.756L257.999 190.052L255.011 197.015C250.716 204.833 255.335 207.894 266.044 207.708L266.04 207.713L266.044 207.708Z" fill="white"/>
<path d="M266.044 207.708C267.719 207.679 269.36 207.258 270.88 206.554C272.993 205.571 275.598 205.615 278.848 207.006C279.723 207.381 280.668 207.569 281.622 207.569H310.263C313.16 202.054 311.73 198.377 301.338 198.491L291.245 194.903L280.201 186.578L280.047 186.46L279.304 182.512C279.167 181.774 278.526 181.317 277.86 181.317C277.547 181.317 277.23 181.419 276.955 181.635C276.634 181.886 276.437 182.26 276.403 182.669L275.902 189.04C275.82 190.101 275.333 191.04 274.604 191.714C273.872 192.387 272.9 192.797 271.834 192.797C270.988 192.797 270.166 192.535 269.478 192.048L261.875 186.676C258.635 183.804 256.804 182.933 257.013 184.988L257.553 187.756L257.999 190.052L255.011 197.015C250.716 204.833 255.335 207.894 266.044 207.708L266.04 207.713L266.044 207.708Z" fill="white"/>
<path d="M266.044 207.708C267.719 207.679 269.36 207.258 270.88 206.554C272.993 205.571 275.598 205.615 278.848 207.006C279.723 207.381 280.668 207.569 281.622 207.569H310.263C313.16 202.054 311.73 198.377 301.338 198.491L291.245 194.903L280.201 186.578L280.047 186.46L279.304 182.512C279.167 181.774 278.526 181.317 277.86 181.317C277.547 181.317 277.23 181.419 276.955 181.635C276.634 181.886 276.437 182.26 276.403 182.669L275.902 189.04C275.82 190.101 275.333 191.04 274.604 191.714C273.872 192.387 272.9 192.797 271.834 192.797C270.988 192.797 270.166 192.535 269.478 192.048L261.875 186.676C258.635 183.804 256.804 182.933 257.013 184.988L257.553 187.756L257.999 190.052L255.011 197.015C250.716 204.833 255.335 207.894 266.044 207.708L266.04 207.713L266.044 207.708Z" stroke="black" stroke-miterlimit="10"/>
<path d="M266.044 207.708C267.719 207.679 269.36 207.258 270.88 206.554C272.993 205.571 275.598 205.615 278.848 207.006C279.723 207.381 280.668 207.569 281.622 207.569H310.263C313.16 202.054 311.73 198.377 301.338 198.491L291.245 194.903L280.201 186.578L280.047 186.46L279.304 182.512C279.167 181.774 278.526 181.317 277.86 181.317C277.547 181.317 277.23 181.419 276.955 181.635C276.634 181.886 276.437 182.26 276.403 182.669L275.902 189.04C275.82 190.101 275.333 191.04 274.604 191.714C273.872 192.387 272.9 192.797 271.834 192.797C270.988 192.797 270.166 192.535 269.478 192.048L261.875 186.676C258.635 183.804 256.804 182.933 257.013 184.988L257.553 187.756L257.999 190.052L255.011 197.015C250.716 204.833 255.335 207.894 266.044 207.708L266.04 207.713L266.044 207.708Z" stroke="black" stroke-miterlimit="10"/>
<path d="M278.858 183.929L275.185 167.047H253.326L257.999 187.731C271.208 198.931 279.099 199.54 278.858 183.931V183.929Z" fill="white" stroke="black" stroke-miterlimit="10"/>
<path d="M271.976 205.494C270.923 204.864 270.227 203.799 269.508 202.809C266.334 198.455 261.98 194.971 257.037 192.818" stroke="black" stroke-linecap="round" stroke-linejoin="round"/>
<path d="M257.011 184.984L257.553 187.752C258.219 188.469 258.971 189.12 259.726 189.693C262.31 191.651 265.125 193.281 267.935 194.905C270.011 196.104 272.604 197.313 274.665 196.093C275.79 195.427 276.425 194.193 276.979 193.013C277.74 191.397 279.148 189.044 280.203 186.58L280.049 186.462L279.307 182.514C279.169 181.776 278.528 181.32 277.862 181.32C277.549 181.32 277.232 181.421 276.957 181.637C276.636 181.888 276.439 182.263 276.406 182.671L275.904 189.042C275.822 190.103 275.336 191.042 274.606 191.716C273.874 192.389 272.902 192.799 271.836 192.799C270.988 192.799 270.168 192.537 269.478 192.051L261.877 186.678C258.637 183.806 256.806 182.935 257.016 184.99H257.011V184.984Z" fill="white" stroke="black" stroke-miterlimit="10"/>
<path d="M267.44 106.076L286.659 177.473L244.506 175.972L234.342 124.412L267.44 106.076Z" fill="#002EFF"/>
<path d="M267.44 106.076L286.659 177.473L244.506 175.972L234.342 124.412L267.44 106.076Z" fill="#002EFF"/>
<path d="M222.12 110.668C212.979 102.599 196.019 87.3792 193.485 84.4887C190.57 81.1626 186.975 78.3313 184.812 74.4047C181.883 69.0847 183.139 62.5255 187.421 58.3029C190.555 55.2115 196.01 54.5814 199.873 56.6007C200.104 56.7191 200.324 56.8481 200.539 56.9813C203.394 58.766 205.115 61.8256 207.086 64.4709C208.991 67.0273 214.491 73.1403 215.442 74.2821C216.502 75.4006 222.797 84.4422 233.242 97.349C233.314 97.33 222.12 110.668 222.12 110.668Z" fill="white" stroke="black" stroke-miterlimit="10"/>
<path d="M186.901 74.3751C188.785 78.4413 196.135 91.1895 199.901 95.1627L220.547 78.824C219.542 77.4707 206.53 60.0664 203.806 58.0872C203.601 57.935 203.388 57.7912 203.166 57.658C199.45 55.3765 193.968 55.6239 190.622 58.4932C186.057 62.4093 184.349 68.8648 186.901 74.3751Z" fill="#FF3D00"/>
<path d="M186.901 74.3751C188.785 78.4413 196.135 91.1895 199.901 95.1627L220.547 78.824C219.542 77.4707 206.53 60.0664 203.806 58.0872C203.601 57.935 203.388 57.7912 203.166 57.658C199.45 55.3765 193.968 55.6239 190.622 58.4932C186.057 62.4093 184.349 68.8648 186.901 74.3751Z" fill="#FF3D00"/>
<path d="M152.496 138.647C166.018 159.475 192.528 140.616 192.528 140.616L193.655 129.978L194.963 117.64C195.183 115.567 197.829 112.432 198.791 110.524C199.867 108.387 200.833 106.198 201.863 104.039C204.202 99.1273 206.356 94.1519 207.502 88.8128C207.686 87.9565 207.834 87.1107 207.947 86.2691C208.166 84.6684 208.264 83.0953 208.257 81.539C208.257 81.2176 208.251 80.8941 208.24 80.5748C208.014 73.4088 205.614 66.6572 202.58 59.7936L200.368 58.8611L191.172 54.9895C190.675 55.0931 190.181 55.2052 189.692 55.3236C187.711 55.8099 185.814 56.4316 184.013 57.1886C180.132 58.8146 177.174 59.4912 174.125 62.386C168.691 67.5474 164.083 76.3141 161.36 85.5861C159.313 92.8515 159.799 99.5079 156.85 106.46C156.731 106.742 156.613 107.023 156.49 107.302C156.205 107.962 155.911 108.623 155.615 109.292C151.36 118.875 146.372 129.206 152.502 138.641V138.647H152.496Z" fill="#FF3D00"/>
<path d="M152.496 138.647C166.018 159.475 192.528 140.616 192.528 140.616L193.655 129.978L194.963 117.64C195.183 115.567 197.829 112.432 198.791 110.524C199.869 108.387 200.833 106.198 201.865 104.039C204.204 99.1273 206.359 94.1519 207.505 88.8128C207.689 87.9565 207.837 87.1107 207.949 86.2691C208.169 84.6684 208.266 83.0953 208.259 81.539C208.259 81.2176 208.253 80.8941 208.243 80.5748C208.016 73.4088 205.616 66.6572 202.582 59.7936L200.37 58.8611L191.174 54.9895C190.677 55.0931 190.183 55.2052 189.694 55.3236C187.713 55.8099 185.816 56.4316 184.015 57.1886C180.135 58.8146 176.665 61.0729 173.62 63.9655C168.186 69.127 164.085 76.3141 161.366 85.5882C159.319 92.8557 159.806 99.51 156.856 106.462C156.738 106.744 156.619 107.025 156.497 107.304C156.211 107.962 155.917 108.626 155.621 109.294C151.367 118.879 146.379 129.208 152.509 138.643L152.504 138.647H152.496Z" fill="#FF3D00"/>
<path d="M263.89 156.65H260.134V210.552H263.89V156.65Z" fill="black"/>
<path d="M263.89 157.912H260.134V160.266L263.89 157.912Z" fill="black"/>
<path d="M266.914 136.294L289.974 136.059C290.932 136.048 291.693 135.249 291.653 134.295C291.621 133.536 291.087 132.887 290.344 132.716L280.21 130.356L266.918 136.298L266.914 136.294Z" fill="white" stroke="black" stroke-miterlimit="10"/>
<path d="M302.221 134.568L293.08 127.032C291.213 125.495 288.889 124.617 286.473 124.537L271.635 124.055C271.026 124.036 270.432 123.867 269.901 123.564L220.073 95.1944L220.033 95.2874C214.762 89.4683 207.638 82.5497 206.547 81.0781C205.542 79.7248 204.957 78.9763 204.618 78.566C203.76 77.3756 198.687 70.8778 196.962 68.1945C195.177 65.416 193.676 62.2443 190.952 60.2652C190.747 60.1129 190.534 59.9691 190.314 59.8359C186.599 57.5544 181.116 57.8018 177.771 60.6711C173.205 64.5872 171.497 71.0427 174.049 76.5531C175.933 80.6192 179.325 83.6937 182.002 87.2143C182.902 88.4026 185.846 91.5934 189.612 95.5644C193.139 99.2859 204.028 109.205 207.995 113.282C209.577 114.906 211.556 115.902 213.626 116.276L263.274 135.919L263.243 136.031C263.42 136.063 263.6 136.093 263.78 136.122L263.877 136.163L263.892 136.141C269.343 136.947 276.042 136.012 282.905 134.076L287.925 137.992C288.202 138.207 288.71 138.417 289.063 138.431C290.122 138.472 290.869 137.658 290.957 136.759L292.867 138.25C293.133 138.459 293.628 138.664 293.966 138.681C294.74 138.721 295.349 138.311 295.666 137.738L296.153 138.116C296.428 138.328 296.935 138.541 297.284 138.556C298.339 138.598 299.081 137.801 299.183 136.907L300.141 137.522C300.682 137.867 301.388 137.915 301.999 137.584C303.268 136.896 303.336 135.486 302.226 134.568L302.219 134.572L302.221 134.568Z" fill="white" stroke="black" stroke-miterlimit="10"/>
<path d="M285.542 136.139L282.901 134.078C275.763 136.093 268.802 137.025 263.239 136.04" stroke="black" stroke-linecap="round" stroke-linejoin="round"/>
<path d="M299.181 136.909L291.078 129.451" stroke="black" stroke-linecap="round" stroke-linejoin="round"/>
<path d="M295.664 137.74L288.069 130.409" stroke="black" stroke-linecap="round" stroke-linejoin="round"/>
<path d="M290.966 136.797L285.27 131.234" stroke="black" stroke-linecap="round" stroke-linejoin="round"/>
<path d="M261.278 184.119L257.608 167.237H235.748L240.421 187.921C253.63 199.121 261.522 199.73 261.28 184.121L261.278 184.119Z" fill="white" stroke="black" stroke-miterlimit="10"/>
<path d="M292.681 207.759V208.288C292.681 209.626 291.592 210.713 290.253 210.713H239.856C237.636 210.713 235.839 208.918 235.839 206.7C235.64 204.936 235.72 202.686 236.448 199.303L242.601 205.01L292.681 207.753V207.757V207.759Z" fill="white" stroke="black" stroke-miterlimit="10"/>
<path d="M248.284 207.902C249.958 207.872 251.78 207.448 253.3 206.744C255.411 205.761 258.018 205.805 261.268 207.197C262.143 207.571 263.088 207.759 264.042 207.759H292.683C295.58 202.247 294.15 198.567 283.758 198.682L273.665 195.093L262.621 186.769L262.467 186.65L261.724 182.702C261.587 181.964 260.946 181.508 260.28 181.508C259.967 181.508 259.65 181.609 259.375 181.825C259.054 182.076 258.857 182.451 258.823 182.859L258.322 189.23C258.24 190.291 257.753 191.23 257.026 191.905C256.294 192.577 255.322 192.987 254.256 192.987C253.41 192.987 252.588 192.725 251.901 192.239L244.297 186.866C241.057 183.994 239.226 183.123 239.436 185.178L239.977 187.946L240.423 190.243L237 197C232.706 204.817 237.759 208.085 248.469 207.899L248.464 207.903L248.284 207.902Z" fill="white" stroke="black" stroke-miterlimit="10"/>
<path d="M254.396 205.689C253.343 205.059 252.649 203.993 251.928 203.004C248.754 198.648 244.4 195.165 239.457 193.013" stroke="black" stroke-linecap="round" stroke-linejoin="round"/>
<path d="M239.433 185.174L239.973 187.942C240.639 188.659 241.391 189.31 242.146 189.881C244.73 191.839 247.545 193.469 250.355 195.093C252.431 196.292 255.024 197.502 257.085 196.282C258.21 195.616 258.845 194.381 259.399 193.201C260.16 191.585 261.568 189.232 262.623 186.769L262.469 186.65L261.727 182.702C261.589 181.964 260.948 181.508 260.282 181.508C259.969 181.508 259.652 181.609 259.377 181.825C259.056 182.076 258.859 182.451 258.826 182.859L258.324 189.23C258.242 190.291 257.756 191.23 257.028 191.905C256.297 192.577 255.324 192.987 254.258 192.987C253.412 192.987 252.59 192.725 251.903 192.239L244.299 186.866C241.06 183.994 239.228 183.123 239.438 185.178H239.433V185.174Z" fill="white" stroke="black" stroke-miterlimit="10"/>
<path d="M326.68 142.728H238.258V157.912H326.68V142.728Z" fill="black"/>
<path d="M326.68 142.728H238.258V157.912H326.68V142.728Z" fill="black"/>
<path d="M321.362 138.643H270.965V140.719H321.362V138.643Z" fill="black"/>
<path d="M321.362 138.643H270.965V140.719H321.362V138.643Z" fill="black"/>
<path d="M321.613 140.717H319.063L330.45 97.7296H333L321.613 140.717Z" fill="black"/>
<path d="M321.613 140.717H319.063L330.45 97.7296H333L321.613 140.717Z" fill="black"/>
<path d="M329.154 140.717C330.156 140.717 330.97 141.445 330.97 142.343V143.113C330.97 144.009 330.156 144.739 329.154 144.739H237.169C236.167 144.739 235.353 144.012 235.353 143.113V142.343C235.353 141.447 236.167 140.717 237.169 140.717H329.154Z" fill="white" stroke="black" stroke-miterlimit="10"/>
<path d="M229.927 45.616C229.758 42.5246 228.263 39.5305 225.971 37.4604C222.814 34.6143 218.36 33.445 214.119 33.7748C212.958 33.8658 211.799 34.0624 210.714 34.4874C209.492 34.9695 208.355 35.661 207.374 36.5342C206.054 37.712 204.477 39.5707 204.115 41.3595C203.986 42.0002 203.935 42.717 203.931 43.4507C200.717 49.1662 195.712 53.5855 191.168 54.9916C190.671 55.0952 190.176 55.2073 189.688 55.3257C191.259 58.2268 192.942 61.0665 194.733 63.8344C196.714 66.8941 199.017 71.1843 202.166 73.191C206.086 75.6861 204.959 70.4083 204.295 68.5518C204.064 67.9006 203.83 67.2535 203.599 66.6128L205.891 64.4138L208.532 61.8806C209.746 62.7814 218.39 64.7415 223.759 61.0813C226.529 59.191 228.719 54.9049 228.998 54.0168C230.176 50.2234 230.113 48.9611 229.931 45.6139H229.925L229.927 45.616Z" fill="white" stroke="black" stroke-miterlimit="10"/>
<path d="M173.148 76.4029C175.138 80.7228 182.905 94.2534 186.884 98.4718L208.257 81.4777L208.697 81.1288C208.615 81.0167 208.46 80.8095 208.24 80.5134C205.591 76.9569 193.669 61.058 191.009 59.1169C190.794 58.9584 190.565 58.804 190.335 58.6644C188.502 57.5311 186.256 56.9877 184.025 57.0384C180.145 58.6729 177.164 59.4976 174.121 62.3965C172.068 66.2216 171.249 72.286 173.148 76.4071V76.4029Z" fill="#FF3D00"/>
<path d="M258.874 112.806L269.648 177.526L235.266 177.638L228.935 123.776L258.874 112.806Z" fill="#002EFF"/>
<path d="M152.849 138.878C168.048 160.798 197.594 146.13 197.594 146.13L259.158 116.128L258.047 102.153C255.888 93.8326 245.826 88.779 237.283 91.7203L212.252 100.527L150.743 122.169C150.656 122.442 150.578 122.712 150.506 122.985C149.058 128.21 149.155 133.545 152.851 138.878H152.849Z" fill="#002EFF"/>
<path d="M322.626 156.65H318.871V210.552H322.626V156.65Z" fill="black"/>
<path d="M322.626 157.912H318.871V160.266L322.626 157.912Z" fill="black"/>
<path d="M207.667 81.7927C200.994 73.0684 196.761 64.0501 190.887 60.3899" stroke="black" stroke-linecap="round" stroke-linejoin="round"/>
<path d="M216.153 155.929H148.301C144.738 155.929 141.847 158.527 141.847 161.737V168.29C141.847 171.496 144.738 174.099 148.301 174.099H216.153C219.716 174.099 222.606 171.5 222.606 168.29V161.737C222.606 158.53 219.716 155.929 216.153 155.929Z" fill="white" stroke="black" stroke-miterlimit="10"/>
<path d="M224.886 152.856L219.24 125.309C217.352 117.87 209.205 112.523 199.751 112.523H129.564L136.145 152.163L224.884 152.856H224.888H224.886Z" fill="#10069F"/>
<path d="M135.643 162.213L125.069 80.4437C124.434 75.5317 128.266 71.1759 133.227 71.1759H140.293C144.383 71.1759 147.853 74.1785 148.432 78.2193L160.326 160.695L135.641 162.213H135.646H135.643Z" fill="#10069F"/>
<path d="M220.519 150.581H142.67C138.58 150.581 135.265 153.241 135.265 156.523V163.224C135.265 166.505 138.58 169.165 142.67 169.165H220.519C224.609 169.165 227.924 166.505 227.924 163.224V156.523C227.924 153.241 224.609 150.581 220.519 150.581Z" fill="#10069F"/>
<path d="M223.873 151.351H133.996" stroke="black" stroke-linecap="round" stroke-linejoin="round"/>
<path d="M230.458 133.889L238.558 124.787" stroke="black" stroke-linecap="round" stroke-linejoin="round"/>
<path d="M172.364 79.1412L186.867 98.4718L190.009 95.9852L207.779 81.7505C208.236 76.8152 206.786 69.6936 205.898 65.1454" stroke="black" stroke-linecap="round" stroke-linejoin="round"/>
<path d="M266.924 157.661L269.648 177.526" stroke="black" stroke-linecap="round" stroke-linejoin="round"/>
<path d="M259.16 116.124C259.043 100.601 253.802 93.8601 246.206 91.1387" stroke="black" stroke-linecap="round" stroke-linejoin="round"/>
<path d="M310.468 89.5021H281.578V110.664H310.468V89.5021Z" stroke="black" stroke-linecap="round" stroke-linejoin="round"/>
<path d="M281.578 89.5021L295.827 98.9285L310.464 89.5021" stroke="black" stroke-linecap="round" stroke-linejoin="round"/>
<path d="M310.466 91.8091C311.741 91.8091 312.775 90.7751 312.775 89.5022C312.775 88.2292 311.741 87.1953 310.466 87.1953C309.191 87.1953 308.157 88.2292 308.157 89.5022C308.157 90.7751 309.191 91.8091 310.466 91.8091Z" fill="#FF3D00"/>
<path d="M225.524 46.0093C225.835 46.7874 226.093 47.5169 226.332 47.8742C227.226 49.2233 228.713 49.162 229.758 50.2361C230.432 50.9297 230.813 51.9341 231.661 52.3992C232.652 52.9427 234.071 52.3929 234.439 51.323C234.576 50.9233 234.579 50.492 234.627 50.0712C234.693 49.5278 234.841 48.9801 235.154 48.534C235.579 47.9229 236.279 47.8108 236.818 47.3562C237.323 46.9354 237.657 46.4068 237.769 45.7555C237.974 44.546 237.389 43.2541 236.577 42.3787C235.758 41.4969 234.72 40.7548 234.253 39.651C233.915 38.8475 233.906 37.9235 233.468 37.1707C232.891 36.1875 231.718 35.7413 230.614 35.458C229.508 35.1746 228.33 34.9568 227.461 34.2189C226.56 33.4492 226.161 32.2545 225.423 31.3263C223.759 29.2308 220.642 28.44 218.231 29.7467C217.542 30.1168 216.927 30.6496 216.174 30.8442C214.751 31.2142 213.345 30.3113 211.915 29.9772C210.074 29.548 207.927 30.2183 206.94 31.8295C206.509 32.5357 206.306 33.3773 205.777 34.0095C204.999 34.942 203.868 34.9336 202.971 35.6546C202.176 36.2953 201.497 37.3737 201.563 38.4267C201.641 39.7504 202.73 40.9133 202.55 42.256C202.366 43.6199 201.876 45.0852 201.404 46.3814C201.036 47.3858 200.207 48.6714 199.343 49.3079C198.97 49.5806 198.596 50.0056 198.74 50.4412C198.848 50.7753 204.944 48.7454 205.563 48.0519C205.978 47.5867 206.265 47.0158 206.716 46.5865C208.027 45.3305 209.133 46.762 210.258 47.4387C210.945 47.8531 211.505 47.9969 212.059 48.627C212.73 49.3861 213.789 50.4053 214.859 50.4983C216.314 50.6252 216.25 49.3079 217.407 48.811C217.918 48.591 218.472 48.4769 218.971 48.221C220.585 47.39 221.101 45.3643 222.241 43.9519C222.482 43.6537 222.771 43.3683 223.141 43.2795C224.226 43.0173 224.964 44.5904 225.535 46.0114H225.531L225.524 46.0093Z" fill="black"/>
<path d="M209.291 49.1894C211.283 49.1894 212.899 47.5761 212.899 45.5864C212.899 43.5966 211.283 41.9833 209.291 41.9833C207.3 41.9833 205.684 43.5966 205.684 45.5864C205.684 47.5761 207.3 49.1894 209.291 49.1894Z" fill="white"/>
<path d="M209.291 43.7045L210.456 46.4977" stroke="black" stroke-linecap="round" stroke-linejoin="round"/>
<path d="M209.862 45.1L208.232 46.1573" stroke="black" stroke-linecap="round" stroke-linejoin="round"/>
</svg>
