<svg width="349" height="240" viewBox="0 0 349 240" fill="none" xmlns="http://www.w3.org/2000/svg">
<mask id="mask0_231_5123" style="mask-type:alpha" maskUnits="userSpaceOnUse" x="0" y="11" width="349" height="199">
<rect y="11" width="349" height="199" rx="8" fill="#D9D9D9"/>
</mask>
<g mask="url(#mask0_231_5123)">
<path d="M187.707 981.215C172.595 993.071 148.037 991.095 132.925 977.263L42.2495 890.317C29.0261 876.485 29.0261 856.724 44.1386 844.868C44.1386 844.868 183.929 738.161 183.929 506.964C183.929 289.599 36.5823 163.132 36.5823 163.132C21.4698 151.276 21.4698 129.539 34.6933 115.707L123.479 30.7371C136.703 16.9048 161.261 14.9287 178.262 26.785C178.262 26.785 387.948 176.964 387.948 506.964C391.726 833.012 187.707 981.215 187.707 981.215Z" fill="#FF3D00"/>
</g>
<path d="M217.293 170.051L219.953 210.764H215.394L210.459 170.495L217.295 170.053L217.293 170.051Z" fill="white" stroke="black" stroke-miterlimit="10"/>
<path d="M146.529 170.051L143.869 210.764H148.428L153.363 170.495L146.527 170.053L146.529 170.051Z" fill="white" stroke="black" stroke-miterlimit="10"/>
<path d="M169.099 120.725L246.206 91.1409C254.339 88.0199 263.915 92.5195 265.97 100.423L269.358 113.459L217.185 140.222C204.751 146.6 190.679 150.177 176.138 150.651L174.988 150.687C160.273 147.462 153.655 125.339 169.101 120.725H169.099Z" fill="#002EFF"/>
<path d="M310.265 207.569V208.097C310.265 209.436 309.176 210.523 307.835 210.523H257.439C255.218 210.523 253.421 208.727 253.421 206.509C253.222 204.746 253.303 202.496 254.03 199.113L260.185 204.82L310.265 207.562V207.567V207.569Z" fill="white" stroke="black" stroke-miterlimit="10"/>
<path d="M266.047 207.708C267.721 207.679 269.362 207.258 270.882 206.554C272.995 205.571 275.6 205.615 278.85 207.006C279.725 207.381 280.67 207.569 281.624 207.569H310.265C313.162 202.054 311.732 198.377 301.34 198.491L291.247 194.903L280.203 186.578L280.049 186.46L279.307 182.512C279.169 181.774 278.528 181.317 277.862 181.317C277.549 181.317 277.232 181.419 276.957 181.635C276.636 181.886 276.439 182.26 276.405 182.669L275.904 189.039C275.822 190.101 275.336 191.04 274.606 191.714C273.874 192.387 272.902 192.797 271.836 192.797C270.99 192.797 270.168 192.535 269.48 192.048L261.877 186.675C258.637 183.804 256.806 182.933 257.016 184.988L257.555 187.756L258.001 190.052L255.013 197.015C250.719 204.833 255.337 207.894 266.047 207.708L266.042 207.713L266.047 207.708Z" fill="white"/>
<path d="M266.047 207.708C267.721 207.679 269.362 207.258 270.882 206.554C272.995 205.571 275.6 205.615 278.85 207.006C279.725 207.381 280.67 207.569 281.624 207.569H310.265C313.162 202.054 311.732 198.377 301.34 198.491L291.247 194.903L280.203 186.578L280.049 186.46L279.307 182.512C279.169 181.774 278.528 181.317 277.862 181.317C277.549 181.317 277.232 181.419 276.957 181.635C276.636 181.886 276.439 182.26 276.405 182.669L275.904 189.039C275.822 190.101 275.336 191.04 274.606 191.714C273.874 192.387 272.902 192.797 271.836 192.797C270.99 192.797 270.168 192.535 269.48 192.048L261.877 186.675C258.637 183.804 256.806 182.933 257.016 184.988L257.555 187.756L258.001 190.052L255.013 197.015C250.719 204.833 255.337 207.894 266.047 207.708L266.042 207.713L266.047 207.708Z" fill="white"/>
<path d="M266.047 207.708C267.721 207.679 269.362 207.258 270.882 206.554C272.995 205.571 275.6 205.615 278.85 207.006C279.725 207.381 280.67 207.569 281.624 207.569H310.265C313.162 202.054 311.732 198.377 301.34 198.491L291.247 194.903L280.203 186.578L280.049 186.46L279.307 182.512C279.169 181.774 278.528 181.317 277.862 181.317C277.549 181.317 277.232 181.419 276.957 181.635C276.636 181.886 276.439 182.26 276.405 182.669L275.904 189.039C275.822 190.101 275.336 191.04 274.606 191.714C273.874 192.387 272.902 192.797 271.836 192.797C270.99 192.797 270.168 192.535 269.48 192.048L261.877 186.675C258.637 183.804 256.806 182.933 257.016 184.988L257.555 187.756L258.001 190.052L255.013 197.015C250.719 204.833 255.337 207.894 266.047 207.708L266.042 207.713L266.047 207.708Z" stroke="black" stroke-miterlimit="10"/>
<path d="M266.047 207.708C267.721 207.679 269.362 207.258 270.882 206.554C272.995 205.571 275.6 205.615 278.85 207.006C279.725 207.381 280.67 207.569 281.624 207.569H310.265C313.162 202.054 311.732 198.377 301.34 198.491L291.247 194.903L280.203 186.578L280.049 186.46L279.307 182.512C279.169 181.774 278.528 181.317 277.862 181.317C277.549 181.317 277.232 181.419 276.957 181.635C276.636 181.886 276.439 182.26 276.405 182.669L275.904 189.039C275.822 190.101 275.336 191.04 274.606 191.714C273.874 192.387 272.902 192.797 271.836 192.797C270.99 192.797 270.168 192.535 269.48 192.048L261.877 186.675C258.637 183.804 256.806 182.933 257.016 184.988L257.555 187.756L258.001 190.052L255.013 197.015C250.719 204.833 255.337 207.894 266.047 207.708L266.042 207.713L266.047 207.708Z" stroke="black" stroke-miterlimit="10"/>
<path d="M278.858 183.929L275.185 167.047H253.326L257.999 187.731C271.208 198.931 279.099 199.54 278.858 183.931V183.929Z" fill="white" stroke="black" stroke-miterlimit="10"/>
<path d="M271.978 205.495C270.925 204.865 270.229 203.799 269.51 202.809C266.336 198.456 261.983 194.971 257.039 192.818" stroke="black" stroke-linecap="round" stroke-linejoin="round"/>
<path d="M257.013 184.984L257.555 187.752C258.221 188.468 258.974 189.12 259.728 189.693C262.312 191.651 265.127 193.281 267.937 194.905C270.013 196.104 272.606 197.313 274.667 196.093C275.792 195.427 276.427 194.192 276.981 193.012C277.742 191.397 279.15 189.044 280.205 186.58L280.051 186.462L279.309 182.514C279.171 181.776 278.531 181.319 277.864 181.319C277.552 181.319 277.234 181.421 276.959 181.637C276.638 181.888 276.441 182.262 276.408 182.67L275.906 189.041C275.824 190.103 275.338 191.042 274.608 191.716C273.877 192.389 272.904 192.799 271.838 192.799C270.99 192.799 270.17 192.537 269.48 192.05L261.879 186.677C258.639 183.806 256.808 182.935 257.018 184.99H257.013V184.984Z" fill="white" stroke="black" stroke-miterlimit="10"/>
<path d="M267.44 106.076L286.659 177.473L244.506 175.972L234.342 124.413L267.44 106.076Z" fill="#002EFF"/>
<path d="M267.44 106.076L286.659 177.473L244.506 175.972L234.342 124.413L267.44 106.076Z" fill="#002EFF"/>
<path d="M222.12 110.668C212.979 102.6 196.019 87.3795 193.485 84.489C190.57 81.1629 186.975 78.3316 184.812 74.405C181.883 69.0849 183.139 62.5258 187.421 58.3031C190.555 55.2118 196.01 54.5816 199.873 56.601C200.104 56.7194 200.324 56.8484 200.539 56.9816C203.394 58.7662 205.115 61.8259 207.086 64.4711C208.991 67.0275 214.491 73.1405 215.442 74.2823C216.502 75.4009 222.797 84.4424 233.242 97.3493C233.314 97.3302 222.12 110.668 222.12 110.668Z" fill="white" stroke="black" stroke-miterlimit="10"/>
<path d="M186.903 74.375C188.787 78.4412 196.137 91.1894 199.903 95.1625L220.549 78.8239C219.545 77.4706 206.532 60.0663 203.809 58.0871C203.603 57.9349 203.39 57.7911 203.168 57.6579C199.453 55.3763 193.97 55.6237 190.625 58.4931C186.059 62.4091 184.351 68.8647 186.903 74.375Z" fill="#42E8B4"/>
<path d="M186.903 74.375C188.787 78.4412 196.137 91.1894 199.903 95.1625L220.549 78.8239C219.545 77.4706 206.532 60.0663 203.809 58.0871C203.603 57.9349 203.39 57.7911 203.168 57.6579C199.453 55.3763 193.97 55.6237 190.625 58.4931C186.059 62.4091 184.351 68.8647 186.903 74.375Z" fill="#42E8B4"/>
<path d="M152.496 138.647C166.018 159.475 192.528 140.616 192.528 140.616L193.655 129.978L194.964 117.64C195.183 115.568 197.829 112.432 198.791 110.525C199.867 108.387 200.833 106.198 201.863 104.04C204.202 99.1276 206.356 94.1522 207.502 88.8131C207.686 87.9567 207.834 87.1109 207.947 86.2694C208.166 84.6687 208.264 83.0955 208.257 81.5392C208.257 81.2178 208.251 80.8943 208.24 80.575C208.014 73.409 205.614 66.6575 202.58 59.7939L200.368 58.8614L191.172 54.9897C190.675 55.0934 190.181 55.2054 189.692 55.3238C187.711 55.8102 185.814 56.4318 184.013 57.1888C180.132 58.8149 177.174 59.4915 174.125 62.3862C168.691 67.5477 164.083 76.3144 161.36 85.5864C159.313 92.8518 159.799 99.5082 156.85 106.461C156.731 106.742 156.613 107.023 156.49 107.302C156.205 107.962 155.911 108.624 155.615 109.292C151.36 118.875 146.372 129.206 152.502 138.641V138.647H152.496Z" fill="#42E8B4"/>
<path d="M152.496 138.647C166.018 159.475 192.528 140.616 192.528 140.616L193.655 129.978L194.964 117.64C195.183 115.568 197.829 112.432 198.791 110.525C199.869 108.387 200.833 106.198 201.865 104.04C204.204 99.1276 206.359 94.1522 207.505 88.8131C207.689 87.9567 207.837 87.1109 207.949 86.2694C208.169 84.6687 208.266 83.0955 208.259 81.5392C208.259 81.2178 208.253 80.8943 208.243 80.575C208.016 73.409 205.616 66.6575 202.582 59.7939L200.37 58.8614L191.174 54.9897C190.677 55.0934 190.183 55.2054 189.694 55.3238C187.713 55.8102 185.816 56.4318 184.015 57.1888C180.135 58.8149 176.665 61.0731 173.62 63.9657C168.186 69.1272 164.086 76.3143 161.366 85.5885C159.319 92.856 159.806 99.5103 156.856 106.463C156.738 106.744 156.619 107.025 156.497 107.304C156.211 107.962 155.917 108.626 155.621 109.294C151.367 118.879 146.379 129.208 152.509 138.643L152.504 138.647H152.496Z" fill="#42E8B4"/>
<path d="M263.892 156.65H260.137V210.552H263.892V156.65Z" fill="black"/>
<path d="M263.892 157.912H260.137V160.266L263.892 157.912Z" fill="black"/>
<path d="M266.913 136.294L289.974 136.059C290.932 136.049 291.693 135.249 291.653 134.296C291.621 133.537 291.086 132.887 290.344 132.716L280.209 130.356L266.918 136.298L266.913 136.294Z" fill="white" stroke="black" stroke-miterlimit="10"/>
<path d="M302.221 134.568L293.08 127.032C291.213 125.495 288.889 124.618 286.473 124.537L271.635 124.055C271.026 124.036 270.432 123.867 269.901 123.565L220.073 95.1946L220.033 95.2876C214.762 89.4685 207.638 82.5499 206.547 81.0782C205.542 79.725 204.957 78.9764 204.618 78.5662C203.76 77.3758 198.687 70.878 196.962 68.1947C195.177 65.4162 193.676 62.2445 190.952 60.2653C190.747 60.1131 190.534 59.9693 190.314 59.8361C186.599 57.5546 181.116 57.802 177.77 60.6713C173.205 64.5874 171.497 71.0429 174.049 76.5532C175.933 80.6194 179.325 83.6939 182.002 87.2145C182.902 88.4028 185.846 91.5936 189.612 95.5646C193.139 99.2861 204.028 109.205 207.995 113.282C209.577 114.906 211.556 115.902 213.626 116.276L263.274 135.92L263.243 136.032C263.42 136.063 263.6 136.093 263.78 136.123L263.877 136.163L263.892 136.142C269.343 136.947 276.042 136.013 282.905 134.076L287.925 137.992C288.202 138.207 288.71 138.417 289.063 138.432C290.122 138.472 290.869 137.658 290.957 136.759L292.867 138.25C293.133 138.459 293.628 138.664 293.966 138.681C294.74 138.721 295.349 138.311 295.666 137.738L296.153 138.117C296.428 138.328 296.935 138.542 297.284 138.556C298.339 138.599 299.081 137.801 299.183 136.907L300.141 137.522C300.682 137.867 301.388 137.916 301.999 137.584C303.268 136.896 303.336 135.486 302.226 134.568L302.219 134.573L302.221 134.568Z" fill="white" stroke="black" stroke-miterlimit="10"/>
<path d="M285.542 136.139L282.901 134.078C275.763 136.093 268.802 137.025 263.239 136.04" stroke="black" stroke-linecap="round" stroke-linejoin="round"/>
<path d="M299.181 136.909L291.078 129.451" stroke="black" stroke-linecap="round" stroke-linejoin="round"/>
<path d="M295.664 137.74L288.069 130.409" stroke="black" stroke-linecap="round" stroke-linejoin="round"/>
<path d="M290.966 136.797L285.269 131.234" stroke="black" stroke-linecap="round" stroke-linejoin="round"/>
<path d="M261.278 184.119L257.608 167.237H235.748L240.421 187.921C253.63 199.122 261.522 199.731 261.28 184.121L261.278 184.119Z" fill="white" stroke="black" stroke-miterlimit="10"/>
<path d="M292.681 207.759V208.288C292.681 209.626 291.592 210.713 290.253 210.713H239.856C237.636 210.713 235.839 208.918 235.839 206.7C235.64 204.936 235.72 202.686 236.448 199.303L242.601 205.01L292.681 207.753V207.757V207.759Z" fill="white" stroke="black" stroke-miterlimit="10"/>
<path d="M248.467 207.899C250.141 207.869 251.782 207.448 253.303 206.744C255.413 205.761 258.02 205.805 261.27 207.197C262.145 207.571 263.091 207.759 264.044 207.759H292.685C295.582 202.247 294.153 198.568 283.76 198.682L273.667 195.093L262.623 186.769L262.469 186.65L261.727 182.703C261.589 181.965 260.949 181.508 260.283 181.508C259.97 181.508 259.652 181.609 259.378 181.825C259.056 182.077 258.859 182.451 258.826 182.859L258.324 189.23C258.242 190.291 257.756 191.23 257.028 191.905C256.297 192.577 255.324 192.987 254.258 192.987C253.413 192.987 252.59 192.725 251.903 192.239L244.299 186.866C241.06 183.994 239.228 183.123 239.438 185.179L239.979 187.946L240.425 190.243L237 197C232.705 204.817 237.761 208.085 248.471 207.899L248.254 207.902L248.467 207.899Z" fill="white" stroke="black" stroke-miterlimit="10"/>
<path d="M254.398 205.689C253.345 205.059 252.651 203.993 251.93 203.004C248.756 198.648 244.403 195.165 239.459 193.013" stroke="black" stroke-linecap="round" stroke-linejoin="round"/>
<path d="M239.433 185.174L239.973 187.942C240.639 188.659 241.392 189.31 242.146 189.881C244.73 191.839 247.545 193.469 250.355 195.093C252.431 196.292 255.024 197.502 257.085 196.282C258.21 195.616 258.845 194.381 259.399 193.201C260.16 191.585 261.568 189.232 262.623 186.769L262.469 186.65L261.727 182.703C261.589 181.965 260.948 181.508 260.282 181.508C259.969 181.508 259.652 181.609 259.377 181.825C259.056 182.077 258.859 182.451 258.826 182.859L258.324 189.23C258.242 190.291 257.756 191.23 257.028 191.905C256.297 192.577 255.324 192.987 254.258 192.987C253.412 192.987 252.59 192.725 251.903 192.239L244.299 186.866C241.06 183.994 239.228 183.123 239.438 185.179H239.433V185.174Z" fill="white" stroke="black" stroke-miterlimit="10"/>
<path d="M326.68 142.728H238.258V157.912H326.68V142.728Z" fill="black"/>
<path d="M326.68 142.728H238.258V157.912H326.68V142.728Z" fill="black"/>
<path d="M321.362 138.643H270.965V140.719H321.362V138.643Z" fill="black"/>
<path d="M321.362 138.643H270.965V140.719H321.362V138.643Z" fill="black"/>
<path d="M321.613 140.717H319.063L330.45 97.7295H333L321.613 140.717Z" fill="black"/>
<path d="M321.613 140.717H319.063L330.45 97.7295H333L321.613 140.717Z" fill="black"/>
<path d="M329.156 140.717C330.158 140.717 330.972 141.445 330.972 142.343V143.113C330.972 144.01 330.158 144.739 329.156 144.739H237.171C236.169 144.739 235.355 144.012 235.355 143.113V142.343C235.355 141.447 236.169 140.717 237.171 140.717H329.156Z" fill="white" stroke="black" stroke-miterlimit="10"/>
<path d="M229.929 45.616C229.76 42.5247 228.265 39.5305 225.973 37.4605C222.816 34.6144 218.363 33.445 214.121 33.7749C212.96 33.8658 211.801 34.0625 210.717 34.4875C209.494 34.9696 208.357 35.661 207.376 36.5343C206.056 37.7121 204.479 39.5707 204.117 41.3596C203.988 42.0003 203.937 42.7171 203.933 43.4508C200.719 49.1663 195.714 53.5855 191.17 54.9917C190.673 55.0953 190.178 55.2073 189.69 55.3258C191.261 58.2268 192.944 61.0666 194.735 63.8345C196.716 66.8941 199.019 71.1844 202.168 73.1911C206.088 75.6862 204.961 70.4084 204.297 68.5519C204.066 67.9006 203.832 67.2536 203.601 66.6129L205.893 64.4138L208.534 61.8807C209.748 62.7814 218.392 64.7416 223.761 61.0814C226.531 59.191 228.721 54.905 229.001 54.0169C230.178 50.2235 230.115 48.9612 229.933 45.6139H229.927L229.929 45.616Z" fill="white" stroke="black" stroke-miterlimit="10"/>
<path d="M173.15 76.4029C175.14 80.7228 182.907 94.2534 186.886 98.4718L208.26 81.4777L208.699 81.1288C208.617 81.0167 208.463 80.8095 208.243 80.5134C205.593 76.9569 193.672 61.058 191.012 59.1169C190.796 58.9584 190.568 58.804 190.337 58.6644C188.504 57.5311 186.258 56.9877 184.027 57.0384C180.147 58.6729 177.166 59.4976 174.123 62.3965C172.07 66.2216 171.252 72.286 173.15 76.4071V76.4029Z" fill="#42E8B4"/>
<path d="M258.876 112.806L269.65 177.526L235.268 177.638L228.937 123.776L258.876 112.806Z" fill="#002EFF"/>
<path d="M152.849 138.877C168.048 160.798 197.594 146.13 197.594 146.13L259.158 116.128L258.047 102.153C255.889 93.8325 245.826 88.7789 237.283 91.7201L212.252 100.527L150.743 122.169C150.656 122.442 150.578 122.712 150.506 122.985C149.058 128.21 149.155 133.545 152.851 138.877H152.849Z" fill="#002EFF"/>
<path d="M322.626 156.65H318.871V210.552H322.626V156.65Z" fill="black"/>
<path d="M322.626 157.912H318.871V160.266L322.626 157.912Z" fill="black"/>
<path d="M207.667 81.793C200.994 73.0686 196.761 64.0503 190.887 60.3901" stroke="black" stroke-linecap="round" stroke-linejoin="round"/>
<path d="M216.153 155.929H148.301C144.738 155.929 141.847 158.527 141.847 161.737V168.29C141.847 171.496 144.738 174.098 148.301 174.098H216.153C219.716 174.098 222.606 171.5 222.606 168.29V161.737C222.606 158.53 219.716 155.929 216.153 155.929Z" fill="white" stroke="black" stroke-miterlimit="10"/>
<path d="M224.888 152.856L219.242 125.309C217.354 117.87 209.207 112.522 199.753 112.522H129.566L136.147 152.163L224.886 152.856H224.89H224.888Z" fill="#10069F"/>
<path d="M135.643 162.213L125.069 80.4436C124.434 75.5316 128.266 71.1758 133.227 71.1758H140.293C144.383 71.1758 147.853 74.1784 148.432 78.2191L160.326 160.695L135.641 162.213H135.646H135.643Z" fill="#10069F"/>
<path d="M220.519 150.581H142.67C138.58 150.581 135.265 153.241 135.265 156.523V163.224C135.265 166.505 138.58 169.165 142.67 169.165H220.519C224.609 169.165 227.924 166.505 227.924 163.224V156.523C227.924 153.241 224.609 150.581 220.519 150.581Z" fill="#10069F"/>
<path d="M223.875 151.351H133.998" stroke="black" stroke-linecap="round" stroke-linejoin="round"/>
<path d="M230.458 133.889L238.558 124.787" stroke="black" stroke-linecap="round" stroke-linejoin="round"/>
<path d="M172.364 79.1413L186.867 98.4719L190.009 95.9853L207.779 81.7506C208.236 76.8154 206.786 69.6938 205.898 65.1455" stroke="black" stroke-linecap="round" stroke-linejoin="round"/>
<path d="M266.926 157.661L269.65 177.526" stroke="black" stroke-linecap="round" stroke-linejoin="round"/>
<path d="M259.16 116.123C259.043 100.601 253.802 93.86 246.206 91.1387" stroke="black" stroke-linecap="round" stroke-linejoin="round"/>
<path d="M310.47 89.5024H281.58V110.664H310.47V89.5024Z" stroke="black" stroke-linecap="round" stroke-linejoin="round"/>
<path d="M281.58 89.5024L295.829 98.9288L310.466 89.5024" stroke="black" stroke-linecap="round" stroke-linejoin="round"/>
<path d="M310.466 91.8091C311.741 91.8091 312.775 90.7751 312.775 89.5022C312.775 88.2293 311.741 87.1953 310.466 87.1953C309.191 87.1953 308.157 88.2293 308.157 89.5022C308.157 90.7751 309.191 91.8091 310.466 91.8091Z" fill="#FF3D00"/>
<path d="M225.524 46.0093C225.835 46.7875 226.093 47.517 226.332 47.8743C227.226 49.2233 228.713 49.162 229.758 50.2362C230.432 50.9297 230.813 51.9341 231.661 52.3993C232.652 52.9427 234.071 52.393 234.439 51.323C234.576 50.9234 234.579 50.492 234.627 50.0713C234.693 49.5278 234.841 48.9802 235.154 48.534C235.579 47.9229 236.279 47.8109 236.818 47.3563C237.323 46.9355 237.657 46.4068 237.769 45.7556C237.974 44.5461 237.389 43.2541 236.577 42.3787C235.758 41.497 234.72 40.7548 234.253 39.6511C233.915 38.8476 233.906 37.9235 233.468 37.1708C232.891 36.1875 231.718 35.7414 230.614 35.458C229.508 35.1747 228.33 34.9569 227.461 34.2189C226.56 33.4493 226.161 32.2546 225.423 31.3263C223.759 29.2309 220.642 28.44 218.231 29.7468C217.542 30.1168 216.927 30.6497 216.174 30.8442C214.751 31.2143 213.345 30.3114 211.915 29.9773C210.074 29.548 207.927 30.2183 206.94 31.8296C206.509 32.5358 206.306 33.3774 205.777 34.0096C204.999 34.9421 203.868 34.9336 202.971 35.6547C202.176 36.2954 201.497 37.3738 201.563 38.4268C201.641 39.7504 202.73 40.9134 202.55 42.2561C202.366 43.6199 201.876 45.0853 201.404 46.3815C201.036 47.3859 200.207 48.6715 199.343 49.3079C198.97 49.5807 198.596 50.0057 198.74 50.4413C198.848 50.7754 204.944 48.7455 205.563 48.0519C205.978 47.5867 206.265 47.0158 206.716 46.5866C208.027 45.3306 209.133 46.7621 210.258 47.4387C210.945 47.8532 211.505 47.9969 212.059 48.6271C212.729 49.3862 213.789 50.4053 214.859 50.4984C216.314 50.6252 216.25 49.3079 217.407 48.811C217.918 48.5911 218.472 48.4769 218.971 48.2211C220.585 47.3901 221.101 45.3644 222.24 43.9519C222.482 43.6538 222.771 43.3683 223.141 43.2795C224.226 43.0173 224.964 44.5905 225.535 46.0114H225.531L225.524 46.0093Z" fill="black"/>
<path d="M209.294 49.1896C211.285 49.1896 212.901 47.5762 212.901 45.5865C212.901 43.5968 211.285 41.9834 209.294 41.9834C207.302 41.9834 205.686 43.5968 205.686 45.5865C205.686 47.5762 207.302 49.1896 209.294 49.1896Z" fill="white"/>
<path d="M209.293 43.7046L210.456 46.4978" stroke="black" stroke-linecap="round" stroke-linejoin="round"/>
<path d="M209.864 45.1001L208.232 46.1573" stroke="black" stroke-linecap="round" stroke-linejoin="round"/>
</svg>
